# xmcd
#
# Track frame offsets:
#	150
#	13697
#	26830
#	40257
#	52542
#	66220
#	79662
#	93217
#	107375
#	119715
#	133372
#	146740
#	158485
#	173030
#	185820
#	203105
#
# Disc length: 2837 seconds
#
# Revision: 1
# Processed by: cddbd v1.5.1PL0 Copyright (c) Steve Scherf et al.
# Submitted via: CDex 1.50Beta5
#
DISCID=d70b1310
DTITLE=さまざま - Screan Classics
DYEAR=1900
DGENRE=Soundtracks
TTITLE0=プリティー・ウーマン
TTITLE1=スタンド・バイ・ミー
TTITLE2=男が女を愛するとき
TTITLE3=ムーン・リヴァー
TTITLE4=慕情
TTITLE5=マイ・ガール
TTITLE6=雨にぬれても(明日に向かって撃て)
TTITLE7=サウンド・オブ・サイレンス(卒業)
TTITLE8=男と女
TTITLE9=時の過ぎ行くまま
TTITLE10=雨に唄えば
TTITLE11=ロシアより愛をこめて
TTITLE12=星に願いを(ピノキオ)
TTITLE13=虹のかなたに(オズの魔法使い)
TTITLE14=アンチェインド・メロディ(ゴースト ニューヨークの幻)
TTITLE15=白い恋人達(コーラス)
EXTD=
EXTT0=
EXTT1=
EXTT2=
EXTT3=
EXTT4=
EXTT5=
EXTT6=
EXTT7=
EXTT8=
EXTT9=
EXTT10=
EXTT11=
EXTT12=
EXTT13=
EXTT14=
EXTT15=
PLAYORDER=
